<?xml version="1.0" standalone="no"?>
<!DOCTYPE svg PUBLIC "-//W3C//DTD SVG 20010904//EN"
 "http://www.w3.org/TR/2001/REC-SVG-20010904/DTD/svg10.dtd">
<svg version="1.0" xmlns="http://www.w3.org/2000/svg"
 width="724.000000pt" height="724.000000pt" viewBox="0 0 724.000000 724.000000"
 preserveAspectRatio="xMidYMid meet">
<metadata>
Created by potrace 1.11, written by Peter Selinger 2001-2013
</metadata>
<g transform="translate(0.000000,724.000000) scale(0.100000,-0.100000)"
fill="#000000" stroke="none">
<path d="M3870 7044 c-58 -14 -79 -20 -120 -28 -33 -7 -134 -29 -140 -31 -44
-10 -69 -16 -90 -21 -14 -3 -41 -9 -60 -14 -19 -4 -69 -15 -110 -25 -86 -19
-87 -19 -155 -35 -27 -6 -57 -13 -65 -15 -167 -37 -306 -69 -390 -89 -58 -14
-116 -27 -130 -29 -14 -3 -65 -15 -115 -27 -101 -24 -93 -22 -195 -44 -41 -9
-92 -20 -113 -26 -20 -6 -49 -13 -65 -14 -15 -2 -47 -9 -72 -16 -25 -7 -54
-14 -65 -16 -11 -2 -101 -22 -200 -45 -99 -22 -187 -42 -195 -44 -8 -2 -45
-10 -83 -19 -37 -9 -81 -18 -99 -21 -17 -3 -34 -8 -38 -10 -3 -2 -17 -6 -31
-9 -13 -2 -46 -10 -74 -16 -27 -6 -57 -13 -66 -15 -9 -2 -79 -18 -155 -35 -77
-17 -168 -38 -204 -46 -36 -8 -74 -17 -85 -19 -11 -3 -33 -8 -49 -11 -16 -2
-32 -7 -36 -9 -4 -2 -22 -7 -41 -10 -19 -3 -41 -8 -49 -10 -8 -2 -26 -6 -40
-9 -32 -6 -193 -43 -247 -57 -24 -7 -43 -14 -43 -18 1 -5 18 -76 36 -146 3
-11 7 -29 9 -40 3 -11 7 -29 9 -40 3 -11 21 -85 41 -165 37 -145 42 -165 49
-198 2 -9 9 -37 16 -62 7 -25 14 -54 16 -65 2 -11 11 -47 19 -80 9 -33 18 -71
21 -85 2 -14 7 -32 10 -40 4 -8 12 -42 20 -75 16 -67 22 -90 24 -90 1 0 3 -11
5 -25 2 -14 17 -78 34 -142 17 -65 33 -128 35 -140 3 -13 12 -50 21 -83 8 -33
18 -70 20 -82 3 -13 7 -33 10 -45 2 -13 41 -167 85 -343 45 -176 83 -329 85
-340 11 -52 28 -121 33 -135 2 -8 6 -22 8 -30 1 -8 8 -33 14 -55 6 -22 12 -49
14 -60 2 -11 9 -40 16 -65 7 -25 14 -53 16 -62 2 -10 6 -26 8 -35 2 -10 16
-65 30 -122 15 -57 28 -114 31 -125 2 -12 4 -21 6 -21 1 0 3 -9 5 -20 5 -38
15 -79 20 -87 5 -8 9 -24 19 -80 3 -15 9 -38 15 -52 5 -15 7 -26 5 -26 -2 0 0
-12 6 -27 6 -16 13 -39 15 -53 3 -14 12 -52 21 -85 8 -33 16 -67 18 -75 27
-135 42 -167 151 -321 60 -85 112 -155 116 -157 5 -2 8 -8 8 -13 0 -6 5 -15
11 -22 5 -7 53 -73 105 -147 52 -74 101 -143 109 -153 8 -9 15 -20 15 -23 0
-5 48 -72 60 -84 3 -3 10 -12 15 -21 22 -34 68 -103 77 -113 11 -14 79 -109
153 -216 33 -47 63 -89 68 -95 5 -5 39 -55 77 -110 38 -55 73 -104 77 -110 8
-9 80 -111 113 -160 32 -47 104 -150 113 -160 4 -5 50 -71 102 -145 52 -74 98
-140 102 -145 40 -50 63 -85 63 -94 0 -6 3 -11 8 -11 4 0 18 -18 32 -40 14
-22 28 -40 32 -40 5 0 8 -7 8 -15 0 -8 5 -15 10 -15 6 0 10 -5 10 -11 0 -6 7
-17 15 -25 13 -13 21 -12 72 11 32 14 75 34 96 45 22 11 45 20 53 20 8 0 14 5
14 12 0 6 3 9 6 5 3 -3 22 3 42 13 21 10 69 33 107 50 39 18 93 43 120 55 183
83 390 177 445 203 36 16 88 40 115 52 91 41 179 82 240 110 33 15 107 49 165
75 58 26 124 56 147 66 23 10 46 19 51 19 5 0 15 6 21 14 7 8 22 17 35 20 22
5 55 20 274 122 41 19 75 34 77 34 2 0 45 20 97 44 51 24 116 53 143 66 28 12
77 35 110 50 33 15 83 38 110 50 28 12 73 33 100 46 58 27 96 41 109 42 5 0
12 4 15 9 3 5 24 17 46 27 82 37 122 56 207 95 48 23 90 41 92 41 2 0 53 23
113 51 59 28 114 52 121 52 6 0 12 4 12 9 0 4 4 8 10 8 9 0 41 14 205 91 39
18 72 33 75 34 3 1 21 8 40 17 86 39 269 122 310 141 25 12 48 20 53 19 4 -1
7 3 7 8 0 6 9 10 20 10 11 0 20 5 20 11 0 5 4 8 9 4 5 -3 16 2 24 10 12 11 15
32 12 87 -5 94 -16 350 -21 503 -2 66 -6 174 -9 240 -2 66 -7 188 -10 270 -3
83 -8 202 -10 265 -3 63 -7 180 -10 260 -3 80 -7 199 -10 265 -2 66 -7 181
-10 255 -5 144 -13 342 -21 530 -2 63 -6 180 -9 260 -3 80 -7 199 -10 265 -3
66 -7 178 -10 250 -3 71 -7 190 -10 265 -3 74 -8 187 -10 250 -2 63 -7 192
-10 285 -4 94 -8 192 -9 219 -1 34 -6 50 -16 52 -8 2 -25 5 -37 8 -12 2 -46 7
-75 10 -29 4 -64 8 -78 11 -36 7 -68 13 -125 20 -62 9 -82 12 -120 18 -52 9
-114 19 -138 21 -43 6 -132 18 -152 22 -11 3 -36 7 -55 9 -67 10 -175 27 -200
31 -14 2 -45 7 -70 10 -25 3 -58 7 -75 10 -16 3 -45 7 -64 10 -40 5 -86 12
-121 19 -14 3 -41 7 -60 9 -19 3 -48 7 -65 10 -37 6 -183 27 -210 31 -45 5
-131 18 -150 21 -27 6 -72 13 -117 19 -67 9 -111 15 -137 20 -42 7 -243 37
-276 41 -16 2 -41 6 -55 9 -14 3 -46 7 -71 10 -25 3 -56 8 -70 10 -140 29
-265 36 -329 19z"/>
</g>
</svg>
